<svg width="1920" height="728" viewBox="0 0 1920 728" fill="none" xmlns="http://www.w3.org/2000/svg">
<path d="M1651 92.0725C1656.35 96.4967 1664.38 105.677 1677.77 104.018C1701.86 101.032 1737.54 53.5818 1723.27 48.2725C1707.21 42.2998 1716.58 108 1746.02 108C1775.46 108 1798.21 35 1824.98 35C1851.75 35 1831.67 82.7818 1858.44 84.1091C1885.2 85.4364 1879.85 49.6 1920 56.2364" stroke="#355C99" stroke-width="2"/>
<path d="M0 99.0725C5.35323 103.497 13.3831 112.677 26.7662 111.018C50.8557 108.032 86.5446 60.5818 72.2687 55.2725C56.209 49.2998 65.5771 115 95.0199 115C124.463 115 147.214 42 173.98 42C200.746 42 180.672 89.7818 207.438 91.1091C234.204 92.4364 228.851 56.6 269 63.2364" stroke="#355C99" stroke-width="2"/>
<path d="M861 711.072C866.353 715.497 874.383 724.677 887.766 723.018C911.856 720.032 947.545 672.582 933.269 667.272C917.209 661.3 926.577 727 956.02 727C985.463 727 1008.21 654 1034.98 654C1061.75 654 1041.67 701.782 1068.44 703.109C1095.2 704.436 1089.85 668.6 1130 675.236" stroke="#355C99" stroke-width="2"/>
<circle cx="333.5" cy="153.5" r="20" stroke="#355C99" stroke-width="3"/>
<circle cx="1703.5" cy="477.5" r="51" stroke="#355C99" stroke-width="3"/>
<circle cx="1556.5" cy="618.5" r="21" stroke="#D41D24" stroke-width="3"/>
<circle cx="1024" cy="39" r="37.5" stroke="#355C99" stroke-width="3"/>
<rect width="14.1245" height="14.1245" transform="matrix(-0.717792 0.696258 -0.717792 -0.696258 417.243 544.834)" fill="#D41D24"/>
<rect width="14.1245" height="14.1245" transform="matrix(-0.717792 0.696258 -0.717792 -0.696258 350.332 544.834)" fill="#D41D24"/>
<rect width="14.1245" height="14.1245" transform="matrix(-0.717792 0.696258 -0.717792 -0.696258 285.812 544.834)" fill="#D41D24"/>
<rect width="14.1245" height="14.1245" transform="matrix(-0.717792 0.696258 -0.717792 -0.696258 218.901 544.834)" fill="#D41D24"/>
<rect width="14.1245" height="14.1245" transform="matrix(-0.717792 0.696258 -0.717792 -0.696258 417.243 630.997)" fill="#D41D24"/>
<rect width="14.1245" height="14.1245" transform="matrix(-0.717792 0.696258 -0.717792 -0.696258 350.332 630.997)" fill="#D41D24"/>
<rect width="14.1245" height="14.1245" transform="matrix(-0.717792 0.696258 -0.717792 -0.696258 285.812 630.997)" fill="#D41D24"/>
<rect width="14.1245" height="14.1245" transform="matrix(-0.717792 0.696258 -0.717792 -0.696258 218.901 630.997)" fill="#D41D24"/>
<rect width="14.1245" height="14.1245" transform="matrix(-0.717792 0.696258 -0.717792 -0.696258 376.619 586.955)" fill="#D41D24"/>
<rect width="14.1245" height="14.1245" transform="matrix(-0.717792 0.696258 -0.717792 -0.696258 309.708 586.955)" fill="#D41D24"/>
<rect width="14.1245" height="14.1245" transform="matrix(-0.717792 0.696258 -0.717792 -0.696258 245.187 586.955)" fill="#D41D24"/>
<rect width="14.1245" height="14.1245" transform="matrix(-0.717792 0.696258 -0.717792 -0.696258 178.277 586.955)" fill="#D41D24"/>
<rect width="15.0601" height="15.0601" transform="matrix(0.653006 0.757353 -0.653006 0.757353 1437.83 38)" fill="#D41D24"/>
<rect width="15.0601" height="15.0601" transform="matrix(0.653006 0.757353 -0.653006 0.757353 1437.83 113.274)" fill="#D41D24"/>
<rect width="15.0601" height="15.0601" transform="matrix(0.653006 0.757353 -0.653006 0.757353 1437.83 185.86)" fill="#D41D24"/>
<rect width="15.0601" height="15.0601" transform="matrix(0.653006 0.757353 -0.653006 0.757353 1437.83 261.135)" fill="#D41D24"/>
<rect width="15.0601" height="15.0601" transform="matrix(0.653006 0.757353 -0.653006 0.757353 1524 38)" fill="#D41D24"/>
<rect width="15.0601" height="15.0601" transform="matrix(0.653006 0.757353 -0.653006 0.757353 1524 113.274)" fill="#D41D24"/>
<rect width="15.0601" height="15.0601" transform="matrix(0.653006 0.757353 -0.653006 0.757353 1524 185.86)" fill="#D41D24"/>
<rect width="15.0601" height="15.0601" transform="matrix(0.653006 0.757353 -0.653006 0.757353 1524 261.135)" fill="#D41D24"/>
<rect width="15.0601" height="15.0601" transform="matrix(0.653006 0.757353 -0.653006 0.757353 1479.96 83.7023)" fill="#D41D24"/>
<rect width="15.0601" height="15.0601" transform="matrix(0.653006 0.757353 -0.653006 0.757353 1479.96 158.977)" fill="#D41D24"/>
<rect width="15.0601" height="15.0601" transform="matrix(0.653006 0.757353 -0.653006 0.757353 1479.96 231.562)" fill="#D41D24"/>
<rect width="15.0601" height="15.0601" transform="matrix(0.653006 0.757353 -0.653006 0.757353 1479.96 306.837)" fill="#D41D24"/>
</svg>
